<svg xmlns="http://www.w3.org/2000/svg" xmlns:xlink="http://www.w3.org/1999/xlink" version="1.0" x="0" y="0" width="2400" height="1881.9540883980544" viewBox="139.4 101.00508728027344 61.2 47.98982925415039" preserveAspectRatio="xMidYMid meet" color-interpolation-filters="sRGB"><g><defs><linearGradient id="92" x1="0%" y1="0%" x2="100%" y2="0%"><stop offset="0%" stop-color="#fa71cd"></stop> <stop offset="100%" stop-color="#9b59b6"></stop></linearGradient><linearGradient id="93" x1="0%" y1="0%" x2="100%" y2="0%"><stop offset="0%" stop-color="#f9d423"></stop> <stop offset="100%" stop-color="#f83600"></stop></linearGradient><linearGradient id="94" x1="0%" y1="0%" x2="100%" y2="0%"><stop offset="0%" stop-color="#0064d2"></stop> <stop offset="100%" stop-color="#1cb0f6"></stop></linearGradient><linearGradient id="95" x1="0%" y1="0%" x2="100%" y2="0%"><stop offset="0%" stop-color="#f00978"></stop> <stop offset="100%" stop-color="#3f51b1"></stop></linearGradient><linearGradient id="96" x1="0%" y1="0%" x2="100%" y2="0%"><stop offset="0%" stop-color="#7873f5"></stop> <stop offset="100%" stop-color="#ec77ab"></stop></linearGradient><linearGradient id="97" x1="0%" y1="0%" x2="100%" y2="0%"><stop offset="0%" stop-color="#f9d423"></stop> <stop offset="100%" stop-color="#e14fad"></stop></linearGradient><linearGradient id="98" x1="0%" y1="0%" x2="100%" y2="0%"><stop offset="0%" stop-color="#009efd"></stop> <stop offset="100%" stop-color="#2af598"></stop></linearGradient><linearGradient id="99" x1="0%" y1="0%" x2="100%" y2="0%"><stop offset="0%" stop-color="#ffcc00"></stop> <stop offset="100%" stop-color="#00b140"></stop></linearGradient><linearGradient id="100" x1="0%" y1="0%" x2="100%" y2="0%"><stop offset="0%" stop-color="#d51007"></stop> <stop offset="100%" stop-color="#ff8177"></stop></linearGradient><linearGradient id="102" x1="0%" y1="0%" x2="100%" y2="0%"><stop offset="0%" stop-color="#a2b6df"></stop> <stop offset="100%" stop-color="#0c3483"></stop></linearGradient><linearGradient id="103" x1="0%" y1="0%" x2="100%" y2="0%"><stop offset="0%" stop-color="#7ac5d8"></stop> <stop offset="100%" stop-color="#eea2a2"></stop></linearGradient><linearGradient id="104" x1="0%" y1="0%" x2="100%" y2="0%"><stop offset="0%" stop-color="#00ecbc"></stop> <stop offset="100%" stop-color="#007adf"></stop></linearGradient><linearGradient id="105" x1="0%" y1="0%" x2="100%" y2="0%"><stop offset="0%" stop-color="#b88746"></stop> <stop offset="100%" stop-color="#fdf5a6"></stop></linearGradient></defs><g class="imagesvg isNoFont" transform="translate(140,101.6050853729248)"><g><rect fill="#333" fill-opacity="0" stroke-width="2" x="0" y="0" width="60" height="46.78982789141641" class="image-rect"></rect> <svg x="0" y="0" width="60" height="46.78982789141641" filtersec="colorsb8375934099" class="image-svg-svg primary" style="overflow: visible;"><svg xmlns="http://www.w3.org/2000/svg" viewBox="0.03128623962402344 0 74.05459594726562 57.75"><g fill-opacity=".8"><path d="M13.75 57.75h39.42c2.78 0 5.94-2.41 5-5l-8.51-25.1c-.9-2.62-2.27-5-5-5H5.2c-2.77 0-5.94 2.42-5 5l8.51 25.06c.9 2.63 2.29 5.04 5.04 5.04z" fill="#d13bfc"></path><path d="M19.1 46h39.42c2.78 0 5.94-2.42 5-5L55 15.89c-.9-2.62-2.27-5-5-5H10.54c-2.77 0-5.93 2.41-5 5L14.06 41c.94 2.57 2.27 5 5.04 5z" fill="#F2B448"></path><path d="M29.49 35.14h39.43c2.77 0 5.93-2.42 5-5L65.4 5c-.89-2.62-2.28-5-5.05-5H20.93c-2.77 0-5.94 2.42-5 5l8.52 25.1c.9 2.62 2.27 5.04 5.04 5.04z" fill="#2F1B80"></path></g></svg></svg> </g></g><defs v-gra="od"></defs></g></svg>